<?xml version="1.0" encoding="UTF-8"?>
<!DOCTYPE svg PUBLIC "-//W3C//DTD SVG 1.1//EN" "http://www.w3.org/Graphics/SVG/1.1/DTD/svg11.dtd">
<svg xmlns="http://www.w3.org/2000/svg" version="1.1" width="4000px" height="4000px" style="shape-rendering:geometricPrecision; text-rendering:geometricPrecision; image-rendering:optimizeQuality; fill-rule:evenodd; clip-rule:evenodd" xmlns:xlink="http://www.w3.org/1999/xlink">
<g><path style="opacity:0.988" fill="#000000" d="M 2861.5,1227.5 C 2875.75,1405.02 2858.08,1579.35 2808.5,1750.5C 2771.63,1870.23 2717.8,1980.9 2647,2082.5C 2502.5,2279.57 2310.33,2408.74 2070.5,2470C 2031.76,2478.37 1992.76,2484.7 1953.5,2489C 1856.31,2497.27 1761.48,2486.43 1669,2456.5C 1651.52,2450.45 1634.36,2443.62 1617.5,2436C 1587.91,2422.47 1559.91,2406.63 1533.5,2388.5C 1488.57,2403.86 1442.73,2416.52 1396,2426.5C 1281.64,2449.06 1165.97,2462.39 1049,2466.5C 1003.17,2467.56 957.337,2467.73 911.5,2467C 895.686,2465.42 883.019,2458.42 873.5,2446C 869.597,2439.29 867.097,2432.12 866,2424.5C 865.208,2409.98 865.375,2395.48 866.5,2381C 872.06,2364.61 883.06,2353.77 899.5,2348.5C 906.811,2347.44 914.144,2347.27 921.5,2348C 1136.8,2388.04 1349.8,2378.87 1560.5,2320.5C 1639.58,2297.76 1716.24,2269.26 1790.5,2235C 1794.5,2234.33 1798.5,2234.33 1802.5,2235C 1828.41,2257.73 1858.74,2271.56 1893.5,2276.5C 1912.16,2279.12 1930.83,2279.12 1949.5,2276.5C 1984.63,2271.41 2017.3,2259.91 2047.5,2242C 2104.6,2204.12 2159.27,2162.95 2211.5,2118.5C 2223.7,2107.36 2236.04,2096.36 2248.5,2085.5C 2254.35,2079.15 2260.35,2072.99 2266.5,2067C 2267.5,2066.67 2268.5,2066.33 2269.5,2066C 2321.42,2015.02 2369.92,1961.19 2415,1904.5C 2418.87,1898.26 2422.03,1891.59 2424.5,1884.5C 2426.48,1876.76 2425.65,1869.43 2422,1862.5C 2417.82,1859.41 2413.82,1856.07 2410,1852.5C 2406.38,1850.71 2402.88,1848.71 2399.5,1846.5C 2393.12,1845.1 2386.95,1845.76 2381,1848.5C 2374.41,1852.42 2368.41,1857.09 2363,1862.5C 2283.92,1960.77 2193.76,2047.44 2092.5,2122.5C 2064.15,2137.32 2046.15,2129.32 2038.5,2098.5C 2039.35,2090.42 2042.01,2083.09 2046.5,2076.5C 2050.54,2072.49 2054.54,2068.49 2058.5,2064.5C 2073.32,2053.13 2088.32,2042.13 2103.5,2031.5C 2115.28,2021.42 2126.94,2011.25 2138.5,2001C 2140.7,1999.3 2143.03,1997.8 2145.5,1996.5C 2160.34,1983.57 2175.01,1970.4 2189.5,1957C 2194.28,1951.43 2199.28,1946.1 2204.5,1941C 2206.74,1938.61 2209.4,1936.77 2212.5,1935.5C 2235.96,1910.38 2259.46,1885.38 2283,1860.5C 2294.06,1847.61 2304.89,1834.61 2315.5,1821.5C 2317.95,1817.65 2320.12,1813.65 2322,1809.5C 2322.64,1804.83 2323.81,1800.33 2325.5,1796C 2324.23,1790.35 2321.9,1785.18 2318.5,1780.5C 2316.89,1779.57 2315.22,1778.74 2313.5,1778C 2306.16,1771.66 2298.66,1765.49 2291,1759.5C 2282.44,1757.55 2274.27,1758.55 2266.5,1762.5C 2263.33,1764.45 2260.33,1766.62 2257.5,1769C 2183.14,1856.03 2099.64,1932.87 2007,1999.5C 2002.99,2000.61 1999.16,2002.11 1995.5,2004C 1988.83,2004.67 1982.17,2004.67 1975.5,2004C 1972.61,2003.11 1969.94,2001.78 1967.5,2000C 1962.46,1994.02 1958.29,1987.52 1955,1980.5C 1954.33,1974.83 1954.33,1969.17 1955,1963.5C 1956.97,1958.89 1959.3,1954.55 1962,1950.5C 1966.51,1946.79 1971.01,1943.12 1975.5,1939.5C 2018.49,1910.17 2059.16,1877.67 2097.5,1842C 2098.5,1841.67 2099.5,1841.33 2100.5,1841C 2123.84,1818.97 2146.84,1796.47 2169.5,1773.5C 2183.22,1759.45 2196.22,1744.78 2208.5,1729.5C 2214.49,1720.26 2215.99,1710.26 2213,1699.5C 2211.06,1697.85 2209.56,1695.85 2208.5,1693.5C 2207.21,1692.9 2205.87,1692.4 2204.5,1692C 2199.71,1686.99 2194.21,1682.82 2188,1679.5C 2178.7,1677.41 2169.87,1678.57 2161.5,1683C 2139.14,1707.2 2116.14,1731.04 2092.5,1754.5C 2061.55,1783.43 2029.55,1811.09 1996.5,1837.5C 1950.06,1872.84 1901.39,1905.01 1850.5,1934C 1804.15,1966.77 1773.15,2010.94 1757.5,2066.5C 1753.82,2084.92 1751.32,2103.58 1750,2122.5C 1749.63,2123.42 1749.13,2124.25 1748.5,2125C 1718.57,2135.15 1688.57,2145.32 1658.5,2155.5C 1637.87,2160.99 1617.2,2166.16 1596.5,2171C 1564.34,2176.53 1532.17,2176.7 1500,2171.5C 1445.82,2156.98 1415.65,2121.81 1409.5,2066C 1406.69,2023.4 1412.36,1982.07 1426.5,1942C 1432.03,1929.09 1437.36,1916.09 1442.5,1903C 1474.98,1838.4 1520.65,1785.57 1579.5,1744.5C 1587.46,1737.89 1595.79,1731.72 1604.5,1726C 1606,1725.5 1607.5,1725 1609,1724.5C 1618.43,1718.2 1627.93,1712.04 1637.5,1706C 1651.99,1698.67 1666.32,1691.01 1680.5,1683C 1741.96,1654.19 1805.29,1630.03 1870.5,1610.5C 1897.3,1603.26 1923.96,1595.76 1950.5,1588C 1998.77,1576.44 2047.1,1565.44 2095.5,1555C 2200.23,1534.97 2304.56,1513.14 2408.5,1489.5C 2472.57,1472.87 2535.07,1451.87 2596,1426.5C 2649.53,1402.29 2699.69,1373.29 2746.5,1339.5C 2747.99,1338.17 2749.32,1336.67 2750.5,1335C 2758.74,1328.68 2767.07,1322.52 2775.5,1316.5C 2784.29,1308.78 2792.63,1300.61 2800.5,1292C 2802.83,1290.5 2805.17,1289 2807.5,1287.5C 2826.28,1268.06 2844.28,1248.06 2861.5,1227.5 Z"/></g>
</svg>
