<?xml version="1.0" standalone="no"?>
<!DOCTYPE svg PUBLIC "-//W3C//DTD SVG 20010904//EN"
 "http://www.w3.org/TR/2001/REC-SVG-20010904/DTD/svg10.dtd">
<svg version="1.0" xmlns="http://www.w3.org/2000/svg"
 width="300.000000pt" height="170.000000pt" viewBox="0 0 300.000000 170.000000"
 preserveAspectRatio="xMidYMid meet">
<metadata>
Created by potrace 1.10, written by Peter Selinger 2001-2011
</metadata>
<g transform="translate(0.000000,170.000000) scale(0.100000,-0.100000)"
fill="#000000" stroke="none">
<path d="M953 1646 c-34 -29 -47 -34 -113 -40 -172 -17 -415 -81 -567 -151
-231 -107 -324 -260 -216 -356 34 -29 40 -31 95 -27 105 8 139 78 38 78 -56 0
-67 11 -56 56 25 100 228 205 539 279 159 38 160 38 65 -80 -91 -113 -182
-242 -264 -372 -53 -85 -57 -88 -92 -88 -31 0 -38 -4 -40 -24 -2 -13 2 -35 9
-48 11 -21 7 -35 -39 -131 -76 -157 -91 -272 -42 -317 28 -25 46 -7 54 56 13
98 112 329 140 329 20 0 39 -21 92 -103 26 -40 79 -103 118 -142 110 -109 222
-155 371 -155 98 1 163 15 193 42 26 25 28 41 6 63 -14 13 -33 14 -132 9 -184
-10 -300 28 -418 139 -53 49 -124 140 -124 159 0 3 40 19 88 37 233 83 505
291 581 443 64 128 29 231 -96 278 -30 11 -63 20 -74 20 -16 0 -18 5 -13 25
15 60 -46 73 -103 21z m156 -127 c70 -15 95 -37 93 -83 -3 -90 -109 -213 -287
-331 -119 -80 -297 -169 -358 -180 -47 -8 -49 -11 64 146 98 137 164 220 282
357 98 113 100 114 206 91z"/>
<path d="M1832 1088 c-32 -32 2 -87 40 -67 31 17 17 79 -17 79 -6 0 -16 -5
-23 -12z"/>
<path d="M2767 988 c-8 -13 -26 -43 -40 -68 -48 -86 -150 -193 -214 -228 -73
-39 -134 -43 -156 -11 -22 31 -10 59 25 59 92 0 239 151 209 216 -13 28 -47
38 -108 31 -55 -6 -114 -45 -161 -107 -31 -40 -77 -80 -93 -80 -4 0 0 24 9 54
17 64 11 100 -23 122 -32 21 -64 13 -110 -27 -37 -32 -42 -32 -24 3 8 16 8 24
-4 35 -23 23 -48 4 -116 -89 -178 -245 -279 -264 -159 -30 33 65 40 87 32 100
-28 43 -75 15 -125 -74 -73 -128 -206 -234 -295 -234 -48 0 -64 14 -64 54 0
69 131 236 185 236 14 0 25 -2 25 -5 0 -2 -14 -20 -32 -40 -28 -33 -30 -38
-16 -52 20 -20 52 -4 73 37 32 63 5 100 -75 100 -58 0 -136 -44 -181 -102 -92
-118 -143 -168 -202 -198 -83 -41 -144 -40 -160 3 -11 28 3 47 34 47 17 0 47
9 67 19 64 32 152 138 152 182 0 25 -42 49 -87 49 -124 0 -253 -140 -253 -277
0 -45 4 -54 31 -77 26 -22 40 -26 97 -26 83 0 134 22 202 86 l50 47 0 -36 c0
-23 8 -46 24 -63 20 -24 32 -28 90 -32 89 -6 145 16 218 86 l58 55 0 -50 c0
-80 55 -107 128 -63 18 11 35 20 37 20 3 0 -16 -42 -41 -92 -133 -266 -196
-514 -137 -546 51 -29 78 20 139 250 75 285 157 461 270 576 39 39 79 72 89
72 15 0 17 -6 12 -47 -3 -27 -13 -65 -21 -85 -14 -32 -23 -39 -72 -53 -58 -17
-114 -60 -114 -89 0 -9 11 -23 25 -32 24 -15 29 -15 73 1 28 11 68 40 100 72
30 29 70 62 90 72 l37 19 -3 -57 c-3 -50 -1 -59 23 -81 21 -20 39 -25 96 -28
101 -6 152 22 272 147 l93 99 12 -30 c10 -28 9 -32 -19 -55 -35 -29 -69 -92
-69 -125 0 -44 27 -68 76 -68 36 0 51 6 74 28 27 28 50 100 50 162 0 25 6 30
48 45 26 10 53 19 60 21 6 2 12 10 12 19 0 19 -32 19 -93 1 l-46 -14 -6 28
c-3 15 -5 47 -4 72 2 24 -1 50 -5 56 -12 20 -54 14 -69 -10z m-1601 -67 c-25
-48 -158 -152 -174 -136 -7 7 57 92 97 128 25 22 51 37 66 37 25 0 25 -1 11
-29z m1380 0 c-20 -38 -108 -116 -146 -129 l-30 -11 16 31 c28 55 117 138 147
138 27 0 27 0 13 -29z m225 -244 c-6 -15 -15 -27 -21 -27 -16 0 -12 33 7 60
14 19 18 21 21 9 1 -8 -2 -28 -7 -42z m-720 3 c-22 -19 -51 -27 -51 -15 0 6
59 34 70 34 3 0 -6 -9 -19 -19z"/>
</g>
</svg>
