<?xml version="1.0" standalone="no"?>
<!DOCTYPE svg PUBLIC "-//W3C//DTD SVG 20010904//EN"
 "http://www.w3.org/TR/2001/REC-SVG-20010904/DTD/svg10.dtd">
<svg version="1.0" xmlns="http://www.w3.org/2000/svg"
 width="300.000000pt" height="300.000000pt" viewBox="0 0 300.000000 300.000000"
 preserveAspectRatio="xMidYMid meet">
<metadata>
Created by potrace 1.10, written by Peter Selinger 2001-2011
</metadata>
<g transform="translate(0.000000,300.000000) scale(0.100000,-0.100000)"
fill="#000000" stroke="none">
<path d="M995 2231 c-16 -10 -39 -28 -49 -40 -14 -16 -31 -21 -66 -21 -129 0
-416 -73 -568 -145 -176 -84 -252 -161 -252 -258 0 -42 5 -54 34 -83 29 -29
41 -34 80 -34 62 0 108 24 104 53 -2 18 -10 22 -44 23 -50 1 -64 9 -64 35 0
86 117 167 355 244 117 38 302 82 310 73 1 -1 -35 -50 -82 -108 -47 -58 -135
-181 -196 -273 -104 -156 -114 -168 -138 -163 -45 9 -66 -37 -36 -78 11 -16 8
-28 -24 -90 -78 -149 -103 -292 -59 -336 27 -27 48 -16 55 28 21 136 109 347
142 340 10 -2 45 -43 79 -91 110 -158 208 -239 337 -278 136 -42 337 -12 345
50 6 43 -17 49 -151 44 -98 -5 -135 -2 -182 12 -119 34 -224 112 -295 217
l-41 62 67 23 c136 46 279 128 417 240 104 85 183 195 201 280 19 84 -44 166
-151 196 -54 16 -60 20 -56 41 4 21 -18 56 -35 56 -4 0 -20 -8 -37 -19z m155
-153 c38 -14 60 -39 60 -67 0 -49 -49 -132 -114 -196 -116 -114 -403 -285
-506 -301 l-44 -7 18 29 c75 119 278 379 386 497 l63 68 56 -7 c31 -4 67 -11
81 -16z"/>
<path d="M1810 1660 c-16 -30 -3 -60 25 -60 31 0 50 32 35 60 -14 26 -46 26
-60 0z"/>
<path d="M2743 1593 c-7 -2 -26 -30 -43 -61 -43 -80 -143 -198 -198 -233 -86
-54 -159 -62 -182 -20 -16 31 -2 48 42 54 51 7 112 48 155 106 44 56 51 86 27
112 -16 18 -28 20 -80 17 -74 -5 -126 -36 -178 -107 -18 -25 -47 -54 -64 -64
l-31 -18 14 42 c49 138 -32 197 -139 100 -26 -23 -27 -24 -17 -4 17 33 14 63
-7 63 -22 0 -50 -29 -125 -131 -64 -86 -142 -162 -160 -156 -26 8 -18 63 23
144 43 86 48 114 26 132 -24 20 -53 -3 -104 -82 -88 -137 -183 -219 -268 -233
-111 -17 -113 67 -5 204 38 47 84 82 111 82 18 0 11 -23 -16 -51 -27 -29 -27
-59 0 -59 23 0 66 59 66 90 0 36 -23 50 -85 50 -63 0 -115 -29 -172 -97 -106
-128 -176 -190 -236 -209 -75 -23 -111 -13 -115 34 -3 30 -2 32 30 32 75 0
208 123 208 192 0 34 -24 48 -84 48 -60 0 -88 -12 -142 -62 -106 -97 -135
-247 -57 -289 15 -8 55 -14 92 -14 74 0 124 24 194 90 l37 36 0 -30 c0 -20 10
-42 29 -63 28 -32 32 -33 103 -33 86 1 128 19 201 90 l47 46 0 -46 c0 -32 6
-51 20 -65 25 -25 43 -25 98 0 23 10 42 18 42 16 0 -2 -27 -59 -59 -127 -82
-172 -123 -297 -129 -389 -3 -60 -1 -78 11 -89 48 -40 83 16 136 220 68 262
150 449 241 551 44 50 105 98 124 98 10 0 7 -44 -5 -81 -27 -85 -29 -88 -83
-103 -85 -25 -126 -68 -104 -108 21 -42 103 -15 183 62 28 26 66 57 86 68 l36
22 -5 -49 c-5 -59 9 -88 53 -107 45 -19 100 -18 161 2 39 14 70 37 152 120 57
57 105 104 107 104 1 0 6 -12 9 -26 6 -20 0 -34 -29 -65 -58 -65 -71 -123 -35
-159 24 -24 77 -26 109 -4 33 24 61 91 61 151 l0 51 58 19 c35 12 58 26 60 36
4 21 -19 22 -83 2 -27 -8 -51 -12 -54 -10 -2 3 -5 36 -5 73 -1 86 -11 102 -53
85z m-1563 -67 c0 -33 -157 -172 -175 -154 -12 12 76 122 120 149 36 22 55 24
55 5z m1340 -1 c0 -32 -160 -168 -178 -150 -2 2 10 24 27 48 57 83 151 147
151 102z m206 -261 c-4 -13 -13 -24 -21 -24 -20 0 -19 15 3 52 13 22 18 25 20
13 2 -9 1 -27 -2 -41z m-695 6 c-25 -21 -57 -27 -46 -9 7 11 42 28 60 28 6 0
-1 -9 -14 -19z"/>
</g>
</svg>
