<?xml version="1.0" standalone="no"?>
<!DOCTYPE svg PUBLIC "-//W3C//DTD SVG 20010904//EN"
 "http://www.w3.org/TR/2001/REC-SVG-20010904/DTD/svg10.dtd">
<svg version="1.0" xmlns="http://www.w3.org/2000/svg"
 width="983.000000pt" height="421.000000pt" viewBox="0 0 983.000000 421.000000"
 preserveAspectRatio="xMidYMid meet">
<metadata>
Created by potrace 1.16, written by Peter Selinger 2001-2019
</metadata>
<g transform="translate(0.000000,421.000000) scale(0.100000,-0.100000)"
fill="#000000" stroke="none">
<path d="M3187 4114 c-54 -19 -151 -91 -222 -163 l-59 -61 -61 0 c-295 0 -907
-115 -1350 -254 -370 -116 -729 -271 -951 -411 -257 -164 -425 -360 -470 -552
-46 -197 40 -391 208 -469 58 -27 72 -29 183 -29 192 0 308 48 339 139 15 43
7 89 -18 114 -17 17 -34 18 -182 7 -104 -7 -113 -6 -131 12 -61 61 -25 217 79
339 99 116 197 186 426 302 330 167 726 302 1208 411 127 29 405 81 431 81 7
0 -19 -37 -58 -82 -351 -407 -815 -1052 -1119 -1558 -52 -85 -95 -157 -97
-159 -2 -3 -37 6 -79 19 -68 22 -78 23 -101 10 -87 -50 -96 -169 -20 -279 l29
-43 -114 -227 c-191 -378 -257 -564 -273 -779 -17 -215 53 -382 160 -382 66 0
99 48 109 160 26 281 154 632 374 1027 36 67 50 83 69 83 33 0 118 -90 183
-194 169 -267 296 -433 460 -596 300 -299 648 -466 1044 -500 201 -17 493 14
650 69 185 65 241 209 116 300 -60 43 -107 47 -252 20 -103 -20 -157 -23 -333
-24 -180 0 -226 3 -322 23 -484 98 -870 378 -1161 842 l-59 95 156 51 c689
226 1479 758 1839 1239 98 130 194 317 222 429 67 269 -40 506 -285 629 -102
51 -216 89 -323 108 -60 10 -72 15 -66 28 3 9 8 45 11 81 5 77 -14 117 -70
143 -42 20 -69 20 -120 1z m328 -513 c172 -36 260 -85 296 -165 24 -52 24 -95
0 -188 -55 -213 -265 -481 -566 -721 -244 -194 -612 -426 -940 -592 -301 -152
-500 -223 -594 -213 l-30 3 87 130 c364 542 936 1265 1376 1739 l36 39 123 -7
c67 -3 163 -15 212 -25z"/>
<path d="M8975 4076 c-218 -69 -602 -426 -975 -906 -259 -335 -580 -848 -817
-1306 l-37 -71 -29 34 c-36 41 -123 86 -195 102 -75 16 -204 14 -275 -5 -165
-42 -336 -171 -467 -349 -158 -215 -417 -494 -498 -534 -56 -28 -93 -24 -110
11 -10 22 -10 40 4 105 28 136 89 277 208 482 80 137 84 217 15 276 -66 54
-154 19 -254 -102 -54 -65 -153 -222 -174 -274 -13 -35 -202 -259 -308 -365
-185 -186 -425 -304 -594 -292 -132 10 -184 63 -175 178 15 183 309 596 507
713 66 38 96 45 130 27 26 -14 17 -31 -82 -143 -64 -72 -79 -95 -79 -121 0
-43 28 -67 84 -73 57 -7 102 19 157 93 116 153 102 302 -34 359 -58 24 -199
30 -286 11 -181 -38 -358 -163 -496 -351 -91 -123 -251 -310 -346 -405 -228
-229 -535 -344 -695 -262 -55 28 -79 83 -69 159 l6 53 48 0 c129 0 265 53 408
159 97 73 175 156 249 267 62 93 84 148 84 211 0 110 -77 168 -237 179 -197
13 -389 -70 -558 -241 -214 -218 -340 -568 -279 -775 24 -80 99 -152 190 -180
150 -46 257 -48 424 -9 167 39 302 122 485 300 l100 97 -3 -74 c-5 -110 17
-174 82 -239 61 -61 127 -87 274 -106 74 -10 103 -9 192 6 225 37 354 111 581
332 l105 103 -9 -70 c-19 -141 24 -270 105 -311 62 -32 188 -24 278 17 77 35
192 118 276 201 l61 61 6 -57 c15 -169 132 -271 310 -271 172 0 345 82 513
242 l81 78 6 -82 c13 -159 68 -218 208 -218 149 0 284 75 471 263 l78 77 0
-53 c0 -206 155 -320 435 -320 170 0 326 48 474 147 44 29 146 120 244 216 92
91 167 163 167 161 0 -2 -37 -43 -83 -90 -129 -134 -207 -262 -207 -340 0 -67
116 -99 159 -45 12 15 21 32 21 40 0 42 105 214 130 214 6 0 10 -10 10 -23 0
-74 56 -213 107 -263 44 -44 105 -48 151 -9 40 34 44 67 27 220 -8 72 -15 159
-15 194 l0 64 133 136 c157 161 248 285 324 439 67 136 76 186 40 227 -20 24
-33 30 -67 30 -55 0 -74 -23 -163 -192 -61 -114 -139 -234 -218 -333 l-26 -32
8 54 c5 30 18 98 29 152 25 121 25 169 1 221 -25 55 -52 76 -104 82 -39 5 -48
1 -80 -27 -20 -18 -50 -60 -67 -94 -34 -72 -75 -218 -86 -304 -8 -72 -12 -79
-98 -182 -224 -269 -378 -388 -596 -461 -82 -27 -105 -31 -170 -27 -141 9
-200 67 -185 185 l6 53 57 0 c168 1 385 115 538 284 70 76 159 209 179 266 39
111 3 203 -98 245 -57 24 -199 30 -284 12 -186 -40 -390 -191 -523 -387 -115
-169 -362 -440 -455 -499 -59 -37 -109 -41 -126 -10 -60 114 266 768 654 1312
163 227 280 360 743 842 307 320 399 425 492 568 56 85 92 171 92 218 0 95
-97 142 -215 105z m-5251 -2279 c16 -12 17 -16 3 -48 -7 -19 -41 -68 -75 -110
-131 -163 -313 -305 -454 -355 l-40 -14 28 48 c77 132 218 310 303 381 70 58
160 111 191 111 14 0 34 -6 44 -13z m4832 -1 c19 -14 19 -15 -3 -59 -25 -51
-103 -148 -185 -229 -95 -94 -237 -187 -340 -224 l-38 -13 27 47 c74 130 215
307 305 382 69 59 157 110 188 110 14 0 35 -6 46 -14z m-1613 -50 c18 -7 45
-28 60 -45 23 -28 27 -42 27 -95 0 -57 -4 -69 -41 -126 -161 -249 -377 -460
-539 -527 -66 -27 -145 -30 -179 -7 -22 16 -23 22 -18 81 5 73 49 173 140 318
103 167 247 308 381 376 84 42 118 47 169 25z"/>
<path d="M5833 2261 c-38 -24 -73 -87 -73 -131 0 -113 121 -172 203 -100 45
39 61 79 54 136 -10 92 -108 142 -184 95z"/>
</g>
</svg>
